<?xml version="1.0" standalone="no"?>
<!DOCTYPE svg PUBLIC "-//W3C//DTD SVG 20010904//EN"
 "http://www.w3.org/TR/2001/REC-SVG-20010904/DTD/svg10.dtd">
<svg version="1.0" xmlns="http://www.w3.org/2000/svg"
 width="512.000000pt" height="512.000000pt" viewBox="0 0 512.000000 512.000000"
 preserveAspectRatio="xMidYMid meet">

<g transform="translate(0.000000,512.000000) scale(0.100000,-0.100000)"
fill="#000000" stroke="none">
<path d="M1410 3609 c-59 -26 -930 -893 -960 -955 -24 -49 -26 -130 -4 -182
18 -45 878 -911 939 -947 90 -52 181 -40 255 35 70 69 85 158 42 245 -8 17
-177 193 -375 393 l-362 362 362 363 c381 381 402 407 403 492 0 44 -36 131
-66 157 -33 29 -107 58 -149 58 -22 0 -60 -10 -85 -21z"/>
</g>
</svg>
