<?xml version="1.0" encoding="UTF-8"?>
<svg id="_레이어_2" data-name="레이어 2" xmlns="http://www.w3.org/2000/svg" viewBox="0 0 122.95 21.31">
  <g id="_레이어_1-2" data-name="레이어 1">
    <g>
      <path d="m8.33,3.67v4.46c0,.51.04,1,.12,1.46.08.46.24.88.48,1.25.67,1.06,1.38,2.11,2.12,3.17s1.52,2.12,2.34,3.19l-2.11,1.9c-.75-.99-1.49-1.99-2.22-2.99-.73-1-1.43-2.01-2.1-3.04-.05-.08-.1-.17-.14-.28s-.08-.2-.1-.3c-.05.27-.11.46-.19.58-.67,1.06-1.36,2.1-2.06,3.13-.7,1.03-1.46,2.05-2.26,3.06l-2.21-1.85c.8-1.06,1.58-2.13,2.33-3.22.75-1.09,1.49-2.22,2.21-3.41.22-.35.38-.76.47-1.22.09-.46.13-.95.13-1.46V3.67H.55V.98h12.22v2.69h-4.44ZM17.95.41v7.85h2.78v2.66h-2.78v10.06h-3.1V.41h3.1Z"/>
      <path d="m27,15.77v-3.74h-5.74v-2.5h13.54v2.5h-4.8v3.74h-3Zm.86-15.41c.93,0,1.74.11,2.45.32s1.29.5,1.75.86c.46.36.81.78,1.04,1.25.23.47.35.96.35,1.45v.29c0,.51-.12,1-.35,1.48-.23.47-.58.89-1.04,1.25-.46.36-1.05.65-1.75.86-.7.22-1.52.32-2.45.32s-1.79-.11-2.5-.32c-.71-.22-1.29-.5-1.76-.86-.47-.36-.82-.78-1.06-1.25-.23-.47-.35-.96-.35-1.48v-.29c0-.5.12-.98.35-1.45.23-.47.58-.89,1.06-1.25.47-.36,1.06-.65,1.76-.86.7-.22,1.54-.32,2.5-.32Zm12.05,18.31v2.59h-13.82c-.5,0-.86-.05-1.1-.16-.24-.1-.48-.29-.72-.56l-.62-.65c-.13-.14-.24-.28-.32-.4-.09-.12-.16-.25-.2-.4-.05-.14-.08-.31-.11-.49-.02-.18-.04-.41-.04-.68v-3.43h3.07v3.1c0,.21.05.38.14.53l.38.41c.06.05.12.08.18.11.06.02.15.04.28.04h12.89Zm-9.41-14.35c0-.38-.21-.74-.64-1.06-.42-.32-1.09-.48-2-.48s-1.61.16-2.04.48c-.43.32-.65.67-.65,1.06v.14c0,.38.22.74.65,1.07.43.33,1.11.49,2.04.49s1.58-.16,2-.49c.42-.33.64-.68.64-1.07v-.14Zm1.42,8.83h4.51V.41h3.02v16.42h-3.02v-1.42h-4.51v-2.26Z"/>
      <path d="m59.66.41v7.13c0,.59-.28.89-.84.89h-5.81v1.51h7.73v2.62h-18.46v-2.62h7.63v-1.51h-3.77c-.37,0-.66-.05-.89-.14-.22-.1-.48-.3-.77-.62l-.41-.43c-.13-.14-.24-.28-.32-.4-.09-.12-.16-.24-.2-.36-.05-.12-.08-.25-.11-.4-.02-.14-.04-.32-.04-.53V.41h3.1v1.42h10.08V.41h3.07Zm-4.97,13.46c1.89,0,3.26.34,4.1,1.03.85.69,1.27,1.56,1.27,2.63s-.42,1.97-1.27,2.64c-.85.68-2.22,1.02-4.1,1.02h-6.31c-1.9,0-3.28-.34-4.13-1.02-.85-.68-1.27-1.56-1.27-2.64,0-.53.1-1.02.31-1.47s.53-.84.96-1.16c.43-.32.99-.57,1.67-.75.68-.18,1.5-.28,2.46-.28h6.31Zm.14,4.78c.8,0,1.33-.1,1.61-.29.27-.19.41-.47.41-.82s-.14-.63-.41-.82-.81-.29-1.61-.29h-6.6c-.8,0-1.34.1-1.61.29-.27.19-.41.47-.41.82s.14.63.41.82c.27.19.81.29,1.61.29h6.6Zm1.75-12.77v-1.51h-10.08v.59c0,.16.05.29.14.39l.26.32c.06.08.12.14.17.17.05.03.12.05.22.05h9.29Z"/>
      <path d="m70.7,10.9c.67,1.06,1.39,2.11,2.16,3.17.77,1.06,1.58,2.1,2.42,3.14l-2.09,1.9c-.8-.96-1.58-1.94-2.34-2.94-.76-1-1.48-2.01-2.15-3.04-.05-.08-.09-.17-.12-.28-.03-.1-.06-.2-.07-.3-.05.22-.13.42-.24.58-.67,1.06-1.36,2.1-2.06,3.13-.7,1.03-1.45,2.05-2.23,3.06l-2.23-1.85c.82-1.06,1.6-2.13,2.35-3.22.75-1.09,1.49-2.22,2.21-3.41.22-.35.38-.76.47-1.22.09-.46.13-.95.13-1.46V.84h3.17v7.32c0,.51.05,1,.14,1.48.1.47.26.89.48,1.26ZM79.87.41v7.7h2.78v2.69h-2.78v10.18h-3.1V.41h3.1Z"/>
      <path d="m83.57,13.22v-2.69h18.46v2.69h-18.46ZM95.64.55c.96,0,1.79.1,2.48.3.7.2,1.28.48,1.74.85.46.37.81.81,1.03,1.32.22.51.34,1.07.34,1.68,0,1.23-.46,2.23-1.37,3-.91.77-2.32,1.15-4.22,1.15h-5.66c-1.9,0-3.31-.38-4.21-1.15-.9-.77-1.36-1.77-1.36-3,0-.61.11-1.17.34-1.68.22-.51.56-.95,1.02-1.32.46-.37,1.04-.65,1.74-.85.7-.2,1.53-.3,2.47-.3h5.66Zm5.59,17.81v2.66h-13.63c-.46,0-.81-.05-1.04-.16-.23-.1-.48-.29-.73-.56l-.53-.53c-.14-.14-.26-.27-.35-.38-.09-.11-.16-.24-.2-.38-.05-.14-.08-.3-.1-.48s-.02-.4-.02-.67v-3.34h3.1v2.95c0,.18.06.32.17.43l.26.31c.11.1.24.14.38.14h12.7Zm-5.42-12.1c.83,0,1.42-.14,1.78-.43.35-.29.53-.66.53-1.13s-.18-.82-.53-1.1c-.35-.29-.94-.43-1.78-.43h-6c-.83,0-1.42.14-1.78.43-.35.29-.53.66-.53,1.1s.18.84.53,1.13c.35.29.94.43,1.78.43h6Z"/>
      <path d="m103.42,4.44V1.97h3.74V0h3.07v1.97h3.65v2.47h-10.46Zm9.96,4.61c0,.48-.09.95-.26,1.4s-.44.86-.79,1.2c-.35.34-.8.62-1.33.84s-1.17.32-1.91.32h-.53c-.74,0-1.38-.1-1.92-.31-.54-.21-.99-.48-1.34-.83s-.62-.74-.79-1.2-.26-.92-.26-1.4.09-.95.26-1.4.44-.86.79-1.2.8-.62,1.34-.84c.54-.22,1.18-.32,1.92-.32h.53c.74,0,1.37.11,1.91.32.54.22.98.5,1.33.84.35.34.62.74.79,1.19.18.45.26.91.26,1.39Zm-2.35,12.26c-1.66,0-2.89-.35-3.67-1.04-.78-.7-1.18-1.58-1.18-2.65,0-.54.1-1.04.29-1.5.19-.46.49-.85.89-1.18.4-.33.9-.58,1.51-.77.61-.18,1.33-.28,2.16-.28h7.08c.82,0,1.53.09,2.14.28s1.11.44,1.51.77c.4.33.7.72.9,1.18s.3.96.3,1.5c0,1.07-.4,1.96-1.19,2.65-.79.7-2.01,1.04-3.66,1.04h-7.08Zm-1.92-10.8c.42,0,.77-.13,1.06-.38.29-.26.43-.61.43-1.06s-.14-.8-.43-1.07c-.29-.26-.64-.4-1.06-.4h-.58c-.45,0-.81.13-1.08.4-.27.26-.41.62-.41,1.07s.14.8.41,1.06c.27.26.63.38,1.08.38h.58Zm9.05,8.3c.56,0,.99-.1,1.3-.31.3-.21.46-.5.46-.89s-.15-.7-.46-.91c-.3-.21-.74-.31-1.3-.31h-7.18c-.56,0-.99.1-1.3.31-.3.21-.46.51-.46.91s.15.68.46.89c.3.21.74.31,1.3.31h7.18Zm-.34-18.26v4.73h1.8V.41h2.95v12.79h-2.95v-5.35h-1.8v4.87h-2.93V.55h2.93Z"/>
    </g>
  </g>
</svg>