<svg xmlns="http://www.w3.org/2000/svg" xmlns:xlink="http://www.w3.org/1999/xlink" viewBox="0 0 200.13 38.83"><defs><style>.a{fill:none;}.b{isolation:isolate;}.c{clip-path:url(#a);}.d{fill:url(#b);}.e{mix-blend-mode:multiply;}.f{clip-path:url(#c);}.g{clip-path:url(#d);}.h{fill:url(#e);}.i{clip-path:url(#f);}.j{clip-path:url(#g);}.k{fill:url(#h);}.l{clip-path:url(#i);}.m{fill:url(#j);}.n{clip-path:url(#k);}.o{clip-path:url(#l);}.p{fill:url(#m);}.q{clip-path:url(#n);}.r{fill:url(#o);}.s{mix-blend-mode:screen;}.t{clip-path:url(#p);}.u{clip-path:url(#q);}.v{fill:url(#r);}.w{clip-path:url(#s);}.x{clip-path:url(#t);}.y{fill:url(#u);}.z{clip-path:url(#v);}.aa{clip-path:url(#w);}.ab{fill:url(#x);}.ac{clip-path:url(#y);}.ad{fill:url(#z);}.ae{clip-path:url(#aa);}.af{clip-path:url(#ab);}.ag{fill:url(#ac);}.ah{clip-path:url(#ad);}.ai{clip-path:url(#ae);}.aj{fill:url(#af);}.ak{clip-path:url(#ag);}.al{clip-path:url(#ah);}.am{fill:url(#ai);}.an{fill:#1e1e1e;}</style><clipPath id="a"><path class="a" d="M17,28.36c8.23,5.11,17.7,5.5,23.77,1.59,2.24-5.15.7-9.76-3.83-14.48C33.46,31,13,23.65,5.27,12.71,6.44,18.5,10.61,24.4,17,28.36"/></clipPath><linearGradient id="b" x1="-177.87" y1="399.81" x2="-176.75" y2="399.81" gradientTransform="translate(22564.24 10030.78) rotate(90) scale(56.38)" gradientUnits="userSpaceOnUse"><stop offset="0" stop-color="#3abeef"/><stop offset="0.23" stop-color="#3abeef"/><stop offset="0.78" stop-color="#077693"/><stop offset="1" stop-color="#077693"/></linearGradient><clipPath id="c"><rect class="a" x="30.29" y="13.48" width="16.25" height="20.6"/></clipPath><clipPath id="d"><path class="a" d="M33.85,21.55s5.52,3.65,1.37,10.59A15.61,15.61,0,0,0,40.76,30a11.76,11.76,0,0,0,1-4.57v-.2c0-3.34-1.7-6.52-4.79-9.75a13.23,13.23,0,0,1-3.16,6.12"/></clipPath><linearGradient id="e" x1="-173.72" y1="383.88" x2="-172.6" y2="383.88" gradientTransform="translate(-10543.68 -4741.54) rotate(-90) scale(27.56)" gradientUnits="userSpaceOnUse"><stop offset="0" stop-color="#205f92"/><stop offset="0.01" stop-color="#246294"/><stop offset="0.51" stop-color="#98b5cd"/><stop offset="0.84" stop-color="#e2eaf1"/><stop offset="1" stop-color="#fff"/></linearGradient><clipPath id="f"><rect class="a" x="0.41" y="10.19" width="19.8" height="20.41"/></clipPath><clipPath id="g"><path class="a" d="M5.85,14.12,6,15.2a25.38,25.38,0,0,0,8.81,11.63C12.26,23.17,12.59,21,13,20a29.35,29.35,0,0,1-6.79-6Z"/></clipPath><linearGradient id="h" x1="-177.97" y1="403.66" x2="-176.85" y2="403.66" gradientTransform="translate(16648.98 7335.96) rotate(90) scale(41.22)" xlink:href="#e"/><clipPath id="i"><path class="a" d="M6.27,7.68C4,12.93,5.52,17.61,10.09,22.4,3.07,9.55,34.43,14,42.17,25.08,41,19.19,36.81,13.21,30.35,9.2A27.09,27.09,0,0,0,16.21,5,18.23,18.23,0,0,0,6.27,7.68"/></clipPath><linearGradient id="j" x1="-184.24" y1="398.28" x2="-183.12" y2="398.28" gradientTransform="matrix(29.05, -6.93, 6.67, 29.11, 2701.96, -12851.98)" gradientUnits="userSpaceOnUse"><stop offset="0" stop-color="#e51f57"/><stop offset="0.02" stop-color="#e51f57"/><stop offset="0.25" stop-color="#eb513c"/><stop offset="0.55" stop-color="#f38d1d"/><stop offset="0.7" stop-color="#f6a510"/><stop offset="1" stop-color="#f6a510"/></linearGradient><clipPath id="k"><rect class="a" x="-3.49" y="4.24" width="21.7" height="21.72"/></clipPath><clipPath id="l"><path class="a" d="M6.49,7.63c-2.43,5.28-.54,10.28,4.18,15-1-1.58-1.27-3.56-.55-4.81l-.65-.52c-2-1.82-2.62-5.54-2.82-9.75v0l-.15.1"/></clipPath><linearGradient id="m" x1="-188.09" y1="388.52" x2="-186.97" y2="388.52" gradientTransform="matrix(20.23, 0, 0, 20.23, 3801.52, -7846.33)" gradientUnits="userSpaceOnUse"><stop offset="0" stop-color="#831710"/><stop offset="0.08" stop-color="#831710"/><stop offset="0.19" stop-color="#973d37"/><stop offset="0.41" stop-color="#bc817d"/><stop offset="0.61" stop-color="#d9b7b5"/><stop offset="0.78" stop-color="#eddedd"/><stop offset="0.92" stop-color="#faf6f6"/><stop offset="1" stop-color="#fff"/></linearGradient><clipPath id="n"><path class="a" d="M2.26,11.82c-5,8-.43,19.8,10.13,26.36l0,0a1.92,1.92,0,0,0,2.92-1.57l.22-7.19a5,5,0,0,0-1.79-4,41.25,41.25,0,0,1-3.49-3.21c-4.56-4.76-6.1-9.4-3.85-14.6a13.53,13.53,0,0,0-4.16,4.19"/></clipPath><linearGradient id="o" x1="-173.51" y1="407.89" x2="-172.39" y2="407.89" gradientTransform="matrix(15.12, 29.86, -29.86, 15.19, 14800.94, -1008.85)" gradientUnits="userSpaceOnUse"><stop offset="0" stop-color="#e94d73"/><stop offset="0.34" stop-color="#e94d73"/><stop offset="1" stop-color="#796bad"/></linearGradient><clipPath id="p"><rect class="a" x="-3" y="5" width="25.45" height="35.99"/></clipPath><clipPath id="q"><path class="a" d="M6,7.92c-2.18,5.16-.63,9.77,3.9,14.5a41.21,41.21,0,0,0,3.49,3.2,5,5,0,0,1,1.79,4L15,36.81a1.86,1.86,0,0,1-.91,1.56,1.9,1.9,0,0,0,1.31-1.75l.22-7.19a5,5,0,0,0-1.79-4,41.21,41.21,0,0,1-3.49-3.2C5.74,17.47,4.19,12.82,6.45,7.62L6,7.92"/></clipPath><radialGradient id="r" cx="-204.02" cy="400.54" r="1.12" gradientTransform="translate(2343.05 -4543.39) scale(11.4)" gradientUnits="userSpaceOnUse"><stop offset="0" stop-color="#fff"/><stop offset="0.17" stop-color="#dadada"/><stop offset="0.53" stop-color="#7d7d7e"/><stop offset="1" stop-color="#000001"/></radialGradient><clipPath id="s"><rect class="a" x="34.01" y="19.38" width="10.57" height="13.73"/></clipPath><clipPath id="t"><path class="a" d="M38,21.07s2.21,6-1.63,10.81h0A15.74,15.74,0,0,0,40.76,30a10.68,10.68,0,0,0-.12-9.35Z"/></clipPath><linearGradient id="u" x1="-174.67" y1="376.48" x2="-173.55" y2="376.48" gradientTransform="translate(-6601.93 -3040.29) rotate(-90) scale(17.64)" xlink:href="#e"/><clipPath id="v"><rect class="a" x="26.62" y="6.61" width="21.65" height="21.68"/></clipPath><clipPath id="w"><path class="a" d="M33,11c.49.79,5.15,8.4,4.68,9.79a45.52,45.52,0,0,1,3.61,3.11l.56-.13A25.28,25.28,0,0,0,33,11Z"/></clipPath><linearGradient id="x" x1="-166.33" y1="386.59" x2="-165.21" y2="386.59" gradientTransform="translate(-11791.23 -5045.34) rotate(-90) scale(30.6)" gradientUnits="userSpaceOnUse"><stop offset="0" stop-color="#a61815"/><stop offset="0.08" stop-color="#a61815"/><stop offset="0.18" stop-color="#b33a37"/><stop offset="0.41" stop-color="#ce7f7e"/><stop offset="0.61" stop-color="#e3b6b5"/><stop offset="0.78" stop-color="#f2dedd"/><stop offset="0.92" stop-color="#fcf6f6"/><stop offset="1" stop-color="#fff"/></linearGradient><clipPath id="y"><path class="a" d="M36.71,1.51,34.4,8.32A5,5,0,0,0,35,12.67a41,41,0,0,1,2.4,4.08c3,5.88,3.12,10.77-.56,15.09A13.19,13.19,0,0,0,42,29c7.08-6.21,6.17-18.81-2-28.15l0,0a1.9,1.9,0,0,0-3.24.66"/></clipPath><linearGradient id="z" x1="-173.85" y1="386.31" x2="-172.73" y2="386.31" gradientTransform="matrix(-5.79, -32.97, 32.98, -5.86, -13703.94, -3432.14)" gradientUnits="userSpaceOnUse"><stop offset="0" stop-color="#f6a308"/><stop offset="0.46" stop-color="#fdc507"/><stop offset="0.53" stop-color="#f8c408"/><stop offset="0.62" stop-color="#e9c20c"/><stop offset="0.72" stop-color="#d1bf12"/><stop offset="0.81" stop-color="#afbb1b"/><stop offset="0.92" stop-color="#85b526"/><stop offset="1" stop-color="#5cb030"/></linearGradient><clipPath id="aa"><rect class="a" x="26.9" y="-1.29" width="20.89" height="34.66"/></clipPath><clipPath id="ab"><path class="a" d="M36.71,1.51,34.4,8.32a5.22,5.22,0,0,0-.26,1.61h0A4.91,4.91,0,0,0,35,12.67a41,41,0,0,1,2.4,4.08c3,5.88,3.12,10.77-.56,15.09l.34-.1a10.81,10.81,0,0,0,2.74-7.08v-.19a17.84,17.84,0,0,0-2.21-7.79,41.2,41.2,0,0,0-2.41-4.08,5,5,0,0,1-.55-4.35L37,1.43A1.9,1.9,0,0,1,38.22.23a1.89,1.89,0,0,0-1.51,1.28"/></clipPath><radialGradient id="ac" cx="-194.62" cy="399.53" r="1.12" gradientTransform="translate(3154.64 -6386.62) scale(16.03)" gradientUnits="userSpaceOnUse"><stop offset="0" stop-color="#f8ae1e"/><stop offset="0.01" stop-color="#f5ac1e"/><stop offset="0.17" stop-color="#b57f16"/><stop offset="0.33" stop-color="#7e5810"/><stop offset="0.49" stop-color="#51390a"/><stop offset="0.63" stop-color="#2e2006"/><stop offset="0.77" stop-color="#150e03"/><stop offset="0.9" stop-color="#050402"/><stop offset="1" stop-color="#000001"/></radialGradient><clipPath id="ad"><rect class="a" x="27.18" y="-2.46" width="31.33" height="38.27"/></clipPath><clipPath id="ae"><path class="a" d="M34.4,8.32a5.22,5.22,0,0,0-.26,1.61h0A4.91,4.91,0,0,0,35,12.67a41,41,0,0,1,2.4,4.08c3,5.88,3.12,10.77-.56,15.09a19.61,19.61,0,0,0,6.64-14.22v-.13c0-4.49-1.71-9.89-6.73-16Z"/></clipPath><radialGradient id="af" cx="-185.14" cy="398.32" r="1.12" gradientTransform="translate(5133.26 -10965.14) scale(27.49)" xlink:href="#r"/><clipPath id="ag"><rect class="a" x="-9.65" y="3.6" width="32.07" height="39.4"/></clipPath><clipPath id="ah"><path class="a" d="M2.26,11.82c-5,8-.43,19.8,10.13,26.36l0,0a2,2,0,0,0,1,.29h0a1.92,1.92,0,0,0,1.89-1.86l.14-4.36C.4,23.21,4.25,12.21,6,8.7c.12-.35.25-.71.41-1.07a13.53,13.53,0,0,0-4.16,4.19"/></clipPath><radialGradient id="ai" cx="-184.48" cy="398.45" r="1.12" gradientTransform="translate(5416.59 -11678.29) scale(29.43)" xlink:href="#r"/></defs><g class="b"><g class="c"><rect class="d" x="11.6" y="3.4" width="25.06" height="39.78" transform="translate(-1.6 44.79) rotate(-83.86)"/></g><g class="e"><g class="f"><g class="g"><rect class="h" x="32.12" y="14.77" width="11.4" height="18.04" transform="translate(-4.27 8.81) rotate(-12.58)"/></g></g></g><g class="e"><g class="i"><g class="j"><rect class="k" x="2.52" y="13.39" width="15.57" height="14.02" transform="translate(-12.53 19.56) rotate(-61.09)"/></g></g></g><g class="l"><polygon class="m" points="5.09 33.92 46.54 24.04 40.14 -3.88 -1.3 6.01 5.09 33.92"/></g><g class="e"><g class="n"><g class="o"><rect class="p" x="-0.44" y="7.53" width="15.59" height="15.13" transform="translate(-8.72 10.24) rotate(-47.2)"/></g></g></g><g class="q"><polygon class="r" points="-15.32 14.05 1.05 46.38 28.22 32.55 11.85 0.22 -15.32 14.05"/></g><g class="s"><g class="t"><g class="u"><rect class="v" x="0.47" y="6.68" width="18.5" height="32.63" transform="translate(-4.98 2.82) rotate(-13.16)"/></g></g></g><g class="e"><g class="w"><g class="x"><rect class="y" x="35.25" y="20.11" width="8.1" height="12.26" transform="translate(-4.77 9.19) rotate(-12.58)"/></g></g></g><g class="e"><g class="z"><g class="aa"><rect class="ab" x="29.68" y="9.87" width="15.52" height="15.17" transform="translate(-0.43 33.96) rotate(-48.54)"/></g></g></g><g class="ac"><polygon class="ad" points="54.47 30.89 48.62 -2.41 28.52 1.16 34.37 34.45 54.47 30.89"/></g><g class="s"><g class="ae"><g class="af"><rect class="ag" x="30.62" y="-0.08" width="13.37" height="32.22" transform="translate(-2.67 8.92) rotate(-13.16)"/></g></g></g><g class="s"><g class="ah"><g class="ai"><rect class="aj" x="30.8" y="0.85" width="15.96" height="31.66" transform="translate(-2.78 9.27) rotate(-13.16)"/></g></g></g><g class="s"><g class="ak"><g class="al"><rect class="am" x="-5.98" y="5.96" width="24.72" height="34.18" transform="translate(-5.08 2.06) rotate(-13.16)"/></g></g></g><path class="an" d="M73.54,27.54H53.47V25.2h8.6V21.07h2.5V25.2h9ZM69.35,20.7H57.48V10.94h2.46v7.42h9.41Z"/><path class="an" d="M84.58,22.16l-1.7,1.76-4.7-4.58A11.21,11.21,0,0,1,76,22.13,14.66,14.66,0,0,1,73.4,24l-1.64-1.87a10,10,0,0,0,2.37-1.63,9,9,0,0,0,1.61-1.94,7.85,7.85,0,0,0,.92-2.09A8,8,0,0,0,77,14.37V11.13h2.6v2.78a11.23,11.23,0,0,1-.11,1.56c-.07.49-.16,1-.26,1.43Zm8.55-4.1H89.35V30.14h-2.5V9h2.5v6.68h3.78Z"/><path class="an" d="M110.77,22.05h-2.44V18.8h-2.87v1.65H93.52V18.11H96c0-.27,0-.54,0-.84s0-.58,0-.86a5.05,5.05,0,0,0-.36-1.57c-.17-.4-.29-.66-.36-.79l2.14-.9a7.09,7.09,0,0,1,.55,1,5.44,5.44,0,0,1,.51,2c0,.34,0,.68,0,1s0,.64,0,.92h2V12.87H93.94V10.55h11.17v2.23h3.22V9h2.44Zm-.54,4.52a4.48,4.48,0,0,1-.41,1.91A4.35,4.35,0,0,1,108.68,30a5.29,5.29,0,0,1-1.68.94,6.47,6.47,0,0,1-4.17,0,5.36,5.36,0,0,1-1.68-1A4.34,4.34,0,0,1,100,28.43a4.31,4.31,0,0,1,1.13-5.13,5,5,0,0,1,1.68-1,6.09,6.09,0,0,1,2.08-.34,5.88,5.88,0,0,1,2,.34,6.08,6.08,0,0,1,1.71.91,4.92,4.92,0,0,1,1.15,1.45,3.91,3.91,0,0,1,.44,1.87m-2.54,0a2.08,2.08,0,0,0-.78-1.7,3,3,0,0,0-2-.64,2.91,2.91,0,0,0-2,.67,2.11,2.11,0,0,0-.76,1.65,2.18,2.18,0,0,0,.72,1.68,3.54,3.54,0,0,0,4.1,0,2.2,2.2,0,0,0,.7-1.67m.64-10.11V15.07H105v-2.2h-2v5.24h2V16.48Z"/><path class="an" d="M128,25.22l-1.71.28c-.56.09-1.17.18-1.83.26s-1.41.11-2.24.16-1.8.07-2.93.07h-5.54V23.65h5.42v-.84a3.64,3.64,0,0,1-1.73-.72,3.94,3.94,0,0,1-1.26-1.32,4.35,4.35,0,0,1-.51-1.48,3.73,3.73,0,0,1,.11-1.46,3,3,0,0,1,.61-1.18s.06-.08.19-.2a.92.92,0,0,1,.3-.22h-2.92V14h12.75v2.27h-5.33a5.54,5.54,0,0,0-1.65.22,2.4,2.4,0,0,0-1.63,2.38,1.71,1.71,0,0,0,.73,1.36,2,2,0,0,0,.81.43,2.43,2.43,0,0,0,.93.08,2.77,2.77,0,0,0,.89-.18,1.68,1.68,0,0,0,.7-.49,1.47,1.47,0,0,0,.44-1.12,1.12,1.12,0,0,0-.78-1l1.8-1.48a3.39,3.39,0,0,1,.91.86,2.92,2.92,0,0,1,.51,1.15,3.29,3.29,0,0,1-.07,1.35,4.56,4.56,0,0,1-.74,1.48,3.46,3.46,0,0,1-1.09.94,4.92,4.92,0,0,1-1.49.55v.85a26.48,26.48,0,0,0,2.89-.17,30.22,30.22,0,0,0,3.46-.59ZM124,13.1l-2,.05c-.92,0-1.9,0-2.93-.05a6.42,6.42,0,0,1-1.94-.47,5.84,5.84,0,0,1-1-.55l.72-1.92.36.12.57.18a7,7,0,0,0,.69.17,6.79,6.79,0,0,0,.86.13c.93.05,1.84.06,2.73.05l2-.05Zm10.81,6.26H131V30.14h-2.48V9H131v8h3.81Z"/><path class="an" d="M150.63,24.3l-1.82.32c-.55.09-1.14.18-1.79.25s-1.41.12-2.29.15-1.95.06-3.25.06h-5.75V22.74h5.72c1.92,0,3.62-.09,5.1-.22a36.5,36.5,0,0,0,4.08-.57Zm-2.87-8.42a4.5,4.5,0,0,1-.44,2,4.81,4.81,0,0,1-1.18,1.56,5,5,0,0,1-1.7,1,5.76,5.76,0,0,1-2,.36,6,6,0,0,1-2.05-.35,4.72,4.72,0,0,1-1.68-1,4.49,4.49,0,0,1-1.16-1.56,4.82,4.82,0,0,1-.42-2,4.46,4.46,0,0,1,.41-1.93,4.85,4.85,0,0,1,1.12-1.57,5.63,5.63,0,0,1,1.69-1,5.79,5.79,0,0,1,2.09-.38,5.85,5.85,0,0,1,2.07.36,5.45,5.45,0,0,1,1.71,1,4.73,4.73,0,0,1,1.13,1.55,4.67,4.67,0,0,1,.42,2m-2.53,0A2.41,2.41,0,0,0,144.4,14a3,3,0,0,0-3.92,0,2.32,2.32,0,0,0-.83,1.83,2.46,2.46,0,0,0,.83,1.93,2.8,2.8,0,0,0,2,.76,2.84,2.84,0,0,0,2-.76,2.44,2.44,0,0,0,.84-1.91m8.32,14.26h-2.48V9h2.48Z"/><path class="an" d="M172.75,20.05,171,21.82l-3.73-3.62a15.61,15.61,0,0,1-5.15,3.62l-1.69-1.88a13.68,13.68,0,0,0,2.66-1.4,13.92,13.92,0,0,0,2.11-1.75,11.42,11.42,0,0,0,1.51-1.88,8.18,8.18,0,0,0,.88-1.79h-5.7V10.78h8.85a11.58,11.58,0,0,1-.63,2.87,13.23,13.23,0,0,1-1.29,2.58Zm5.58,10.66H166.79V23h2.5v5.4h9Zm-.25-6.65H175.6v-7.2h-4.27V14.52h4.27V9h2.48Z"/><path class="an" d="M191.5,20.33H180.63V10.55h9.2v2.34h-6.77V18h8.44Zm4.7,6.12a4.37,4.37,0,0,1-.41,1.87,5,5,0,0,1-1.14,1.52,5.48,5.48,0,0,1-1.68,1,5.82,5.82,0,0,1-2.05.36,6,6,0,0,1-2.12-.36,5.51,5.51,0,0,1-1.68-1A4.65,4.65,0,0,1,186,28.34a4.51,4.51,0,0,1-.39-1.87,4.22,4.22,0,0,1,.42-1.86,4.34,4.34,0,0,1,1.16-1.5,5.35,5.35,0,0,1,1.68-1,5.9,5.9,0,0,1,4,0,5.38,5.38,0,0,1,1.7,1,4.91,4.91,0,0,1,1.16,1.48,4,4,0,0,1,.44,1.88m-2.55.05a2.22,2.22,0,0,0-.78-1.75,2.9,2.9,0,0,0-2-.69,2.85,2.85,0,0,0-2,.71,2.15,2.15,0,0,0-.8,1.68,2.32,2.32,0,0,0,.75,1.74,2.81,2.81,0,0,0,2,.72,2.92,2.92,0,0,0,2-.66,2.21,2.21,0,0,0,.77-1.75m6.26-10.18h-3.64v5.4h-2.5V9h2.5V14h3.64Z"/></g></svg>