<?xml version="1.0" encoding="UTF-8"?>
<svg id="_레이어_2" data-name="레이어 2" xmlns="http://www.w3.org/2000/svg" viewBox="0 0 506 35.33">
  <g id="_레이어_1-2" data-name="레이어 1">
    <g>
      <path d="m5.5,35.05c-.54,0-.97-.15-1.29-.46-.31-.3-.47-.74-.47-1.3v-8.87c0-.57.15-1,.47-1.3.32-.31.74-.46,1.29-.46h22.87c.55,0,.96.15,1.27.45.3.31.45.73.45,1.31v8.87c0,.57-.15,1.01-.45,1.31-.3.3-.73.45-1.27.45H5.5Zm3.04-8.22v4.01l.17.17h16.49l.17-.17v-4.01l-.17-.17H8.71l-.17.17Zm10.9-6.04c-.6-.33-1.24-.71-1.92-1.14-.73-.47-1.46-.94-2.16-1.42-.71-.48-1.38-.96-2.02-1.44-.64-.48-1.18-.92-1.63-1.32-.36-.28-.59-.59-.72-.93l-.31-.02c-.1.2-.24.39-.43.58l-.5.5c-.44.39-.98.82-1.61,1.29-.63.47-1.28.94-1.96,1.42-.68.48-1.37.94-2.06,1.38-.64.41-1.25.77-1.82,1.1l-2.3-3.49c.52-.3,1.07-.64,1.66-1.02.64-.42,1.27-.85,1.89-1.29.62-.44,1.22-.88,1.81-1.33.59-.44,1.12-.85,1.61-1.23.48-.39.81-.79.99-1.21.18-.41.28-.88.28-1.41v-1.77l-.17-.17H.49v-4h7.66l.17-.17V0h4.88v3.73l.17.17h7.58v4h-7.46l-.17.17v1.77c0,.53.09,1.01.27,1.43.18.43.5.82.95,1.19.51.4,1.07.83,1.69,1.29.62.46,1.25.9,1.89,1.33s1.29.84,1.93,1.23c.59.35,1.14.68,1.66.98l-2.27,3.53Zm5.92-.39v-6.25l-.17-.17h-5.01v-4.12h5.01l.17-.17V.56h4.72v19.84h-4.72Z"/>
      <path d="m41.52,35.09c-.78,0-1.36-.08-1.74-.25-.38-.16-.76-.47-1.14-.9l-1.17-1.21c-.2-.23-.38-.45-.53-.64-.14-.18-.24-.39-.32-.62-.08-.23-.13-.49-.17-.79-.04-.3-.06-.68-.06-1.12v-6.57h4.8v5.89c0,.45.09.77.28.99l.77.81c.12.19.42.29.88.29h19.49v4.12h-21.1Zm15.77-9.39V.56h4.84v8.62l.17.17h4.49v4.08h-4.49l-.17.17v12.11h-4.84Zm-17.3-6.22c-.8,0-1.42-.09-1.84-.27-.42-.18-.86-.49-1.29-.93l-1.52-1.6c-.41-.44-.7-.86-.85-1.25-.15-.39-.23-1-.23-1.81V2.88c0-.9.41-1.32,1.28-1.32h16.08v4.08h-12.31l-.17.17v7.42c0,.24.02.41.07.53.04.11.12.23.24.38l.85.89c.21.24.5.37.84.37h11.91v4.08h-13.07Z"/>
      <path d="m93.32,34.61V.56h4.68v34.05h-4.68Zm-7.46-.24v-16.64l-.17-.17h-3.73l-.17.17v12.84c0,.93-.39,1.36-1.24,1.36h-7.02c-.45,0-.82-.02-1.12-.06-.29-.04-.56-.11-.8-.21-.24-.1-.47-.24-.71-.42-.23-.18-.49-.43-.78-.74l-1.44-1.64c-.26-.29-.47-.55-.63-.77-.15-.21-.27-.45-.36-.7-.09-.25-.15-.54-.19-.87-.04-.33-.06-.74-.06-1.24V3.08c0-.9.39-1.32,1.24-1.32h11.87c.84,0,1.24.42,1.24,1.32v10.23l.17.17h3.73l.17-.17V.8h4.6v33.57h-4.6Zm-13.73-28.28v18.85c0,.29.03.52.09.68.06.16.19.36.39.59l.84,1c.18.21.36.35.53.41.16.06.36.09.6.09h2.37l.17-.17V6.09l-.17-.17h-4.65l-.17.17Z"/>
      <path d="m124.29,34.61V.56h4.84v12.71l.17.17h4.49v4.16h-4.49l-.17.17v16.84h-4.84Zm-24.08-6.43c2.13-1.67,3.95-3.14,5.43-4.39,1.5-1.28,2.76-2.43,3.72-3.42,1.12-1.12,1.96-2.1,2.49-2.91.53-.81.89-1.56,1.08-2.21l-.27-.17c-.36.3-.85.55-1.46.73-.63.18-1.42.27-2.36.27h-8.22v-4.04h9.9c.62,0,1.14-.01,1.56-.04.44-.03.78-.1,1.04-.22l.1-.15v-5.66l-.17-.17h-11.83V1.65h15.56c.84,0,1.24.42,1.24,1.32v9.71c0,.87-.08,1.73-.24,2.58-.16.84-.42,1.69-.79,2.53-.37.84-.88,1.71-1.53,2.57-.65.87-1.46,1.78-2.41,2.71-1.22,1.19-2.7,2.53-4.38,3.96-1.66,1.41-3.56,2.93-5.66,4.51l-2.8-3.35Z"/>
      <path d="m159.28,35.33v-9.46l-.17-.17h-21.5v-4.12h25.23c.84,0,1.24.43,1.24,1.36v12.39h-4.8Zm0-16.09V.56h4.8v18.68h-4.8Zm-18.22-1.08c-.83,0-1.47-.08-1.89-.23-.42-.15-.83-.45-1.24-.88l-1.4-1.6c-.39-.44-.67-.86-.83-1.26-.16-.39-.25-.98-.25-1.76V1.48h4.84v10.47c0,.24.02.41.07.53.05.12.15.24.3.39l.8.88c.25.25.53.38.85.38h12.43v4.04h-13.67Z"/>
      <path d="m168.14,33.41v-4.16h11.15l.17-.17v-14.64h4.84v14.64l.17.17h14.19v4.16h-30.51Zm22.81-9.59c.26-.67.47-1.27.63-1.77.18-.56.31-1.1.41-1.63.09-.53.16-1.08.18-1.65.03-.56.04-1.21.04-1.93V6.21l-.17-.17h-22.18V1.81h25.91c.87,0,1.28.43,1.28,1.36v13.6c0,.88-.01,1.61-.04,2.2-.03.58-.1,1.15-.22,1.7-.12.55-.29,1.15-.52,1.78-.22.61-.53,1.37-.92,2.27l-4.41-.9Z"/>
      <path d="m208.21,34.69c-.75,0-1.31-.08-1.68-.25s-.76-.47-1.17-.9l-.89-.88c-.24-.24-.43-.45-.57-.63-.13-.17-.24-.37-.31-.59-.08-.23-.13-.48-.15-.76-.03-.29-.04-.66-.04-1.11v-5.29h4.84v4.65c0,.34.11.62.33.84l.43.51c.23.21.49.3.77.3h21.05v4.12h-22.62Zm6.87-7.38v-5.49l-.17-.17h-13.27v-4.16h30.51v4.16h-12.03l-.17.17v5.49h-4.88Zm-7.51-12.52c-.51,0-.94-.08-1.28-.23-.34-.15-.75-.51-1.24-1.08l-.61-.65c-.23-.26-.42-.49-.57-.69-.14-.19-.26-.38-.35-.57-.09-.18-.14-.38-.17-.59-.03-.22-.04-.5-.04-.84V.72h4.8v2.76l.17.17h16.85l.17-.17V.72h4.84v12.71c0,.93-.41,1.36-1.28,1.36h-21.3Zm.55-7.05v1.52c0,.29.1.53.29.72l.44.44c.08.18.32.29.68.29h15.61l.17-.17v-2.81l-.17-.17h-16.85l-.17.17Z"/>
      <path d="m258.29,34.61V.56h4.84v12.95l.17.17h4.49v4.12h-4.49l-.17.17v16.64h-4.84Zm-24.77-5.8c1.29-1.71,2.57-3.48,3.8-5.25,1.25-1.81,2.49-3.73,3.7-5.7.38-.6.65-1.31.8-2.1.15-.79.22-1.62.22-2.48v-7.42l-.17-.17h-7.5V1.52h20.08v4.16h-7.25l-.17.17v7.46c0,.87.07,1.7.2,2.48.14.79.41,1.52.83,2.15,1.11,1.75,2.31,3.54,3.55,5.3,1.21,1.72,2.5,3.48,3.82,5.22l-3.28,2.94c-1.22-1.61-2.42-3.23-3.6-4.85-1.21-1.66-2.39-3.36-3.51-5.07-.07-.12-.15-.27-.23-.44-.07-.16-.12-.32-.15-.46h-.33c-.08.43-.17.73-.29.89-1.13,1.77-2.28,3.51-3.45,5.24-1.13,1.66-2.36,3.33-3.66,4.97l-3.44-2.88Z"/>
      <path d="m299.29,34.61V.56h4.8v34.05h-4.8Zm-24.4-6.43c2.12-1.65,3.94-3.13,5.43-4.39,1.5-1.28,2.76-2.43,3.72-3.42.87-.87,1.58-1.67,2.1-2.36.52-.69.9-1.33,1.14-1.9.25-.57.4-1.11.47-1.59.07-.48.1-.96.1-1.45v-7.1l-.17-.17h-11.83V1.65h15.56c.87,0,1.28.42,1.28,1.32v9.71c0,1-.06,1.93-.18,2.74-.12.81-.36,1.61-.71,2.38-.35.77-.86,1.59-1.51,2.41-.65.83-1.53,1.78-2.61,2.81-1.14,1.17-2.55,2.47-4.19,3.86-1.61,1.38-3.59,2.94-5.86,4.65l-2.76-3.35Z"/>
      <path d="m313.68,35.05c-.64,0-1.11-.08-1.41-.22-.3-.15-.62-.41-.96-.77l-.6-.64c-.39-.39-.64-.73-.75-1.03-.11-.3-.17-.82-.17-1.55v-3.69c0-.76.42-1.12,1.32-1.12h20.58c.36,0,.57-.19.57-.53v-1.44l-.17-.17h-22.26v-3.64h10.95l.17-.17v-2.01l-.17-.17h-12.75v-3.68h30.52v3.68h-12.59l-.17.17v2.01l.17.17h9.79c.87,0,1.28.41,1.28,1.28v5.01c0,.76-.24,1.41-.72,1.93-.47.52-1.16.79-2.04.79h-19.58l-.17.17v1.24c0,.18.07.34.21.48l.12.12c.13.09.28.13.48.13h22.58v3.64h-24.22Zm-4.51-25.97c1.78-.62,3.5-1.27,5.11-1.93,1.67-.68,3.39-1.41,5.16-2.19.53-.23.94-.55,1.22-.96.27-.41.41-.95.41-1.6V.4h4.8v2c0,.64.12,1.18.36,1.59.25.42.66.75,1.23.97,1.73.77,3.45,1.5,5.13,2.19,1.62.65,3.34,1.3,5.13,1.93l-1.66,3.62c-2.01-.73-3.98-1.5-5.85-2.27-1.94-.8-3.9-1.67-5.83-2.6-.36-.21-.6-.47-.72-.76h-.31c-.14.31-.4.56-.77.76-1.99.96-3.97,1.85-5.86,2.66-1.87.8-3.84,1.57-5.84,2.29l-1.71-3.71Z"/>
      <path d="m341.65,33.41v-4.16h6.01l.17-.17v-14.8h4.84v14.8l.17.17h3.25l.17-.17v-14.8h4.84v14.8l.17.17h10.9v4.16h-30.51Zm22.97-9.46c.26-.68.47-1.27.63-1.79.17-.57.31-1.11.4-1.62.09-.52.16-1.05.18-1.61.03-.55.04-1.19.04-1.91V6.21l-.17-.17h-22.5V1.81h26.19c.9,0,1.32.43,1.32,1.36v13.76c0,.88-.01,1.61-.04,2.18-.03.56-.1,1.12-.22,1.66-.12.54-.29,1.13-.52,1.76-.22.61-.53,1.38-.93,2.31l-4.41-.9Z"/>
      <path d="m394.16,35.21v-8.98l-.17-.17h-7.1l-.17.17v8.98h-4.8v-8.98l-.17-.17h-6.61v-4.16h30.51v4.16h-6.57l-.17.17v8.98h-4.76Zm-13.29-16.37c-.61,0-1.07-.08-1.35-.22-.29-.15-.62-.41-.98-.77l-.72-.72c-.18-.2-.33-.39-.45-.54-.11-.15-.2-.32-.28-.5-.07-.19-.12-.4-.15-.64-.03-.25-.04-.56-.04-.92v-5.7c0-.38.12-.65.36-.83.25-.19.59-.29,1-.29h19.98c.5,0,.77-.27.77-.77v-2.01l-.17-.17h-21.9V.68h25.51c.87,0,1.28.38,1.28,1.2v7.06c0,1.8-.89,2.68-2.72,2.68h-19.18l-.17.17v1.64c0,.26.1.49.29.68l.36.36c.1.13.31.21.6.21h21.66v4.16h-23.7Z"/>
      <path d="m433.28,34.61V.56h4.8v34.05h-4.8Zm-25.65-5.72c1.32-1.71,2.63-3.48,3.88-5.25,1.28-1.82,2.54-3.74,3.74-5.71.38-.6.65-1.31.78-2.11.13-.78.2-1.61.2-2.47V1.28h5v12.07c0,.86.08,1.7.22,2.5.15.81.44,1.53.85,2.17,1.12,1.76,2.35,3.54,3.66,5.3,1.28,1.73,2.63,3.46,4,5.14l-3.28,2.95c-1.27-1.56-2.54-3.15-3.8-4.78-1.29-1.66-2.51-3.37-3.62-5.06-.07-.12-.13-.26-.18-.42-.05-.17-.09-.33-.12-.48h-.33c-.08.34-.2.65-.37.89-1.12,1.75-2.29,3.51-3.49,5.24-1.17,1.67-2.4,3.35-3.66,4.97l-3.47-2.88Z"/>
      <path d="m442.06,32.96v-4.16h30.68v4.16h-30.68Zm27.85-10.22c-2.04-1.55-4.06-3.14-6-4.73-1.99-1.64-3.9-3.27-5.65-4.87-.15-.15-.29-.3-.41-.43-.11-.12-.2-.27-.27-.43h-.31c-.08.18-.16.33-.24.45-.09.13-.21.27-.36.42-1.85,1.66-3.76,3.32-5.67,4.92-1.9,1.59-3.85,3.15-5.82,4.63l-2.88-3.55c1.88-1.39,3.78-2.84,5.64-4.33,1.92-1.54,3.79-3.14,5.55-4.76.57-.49.98-1.01,1.2-1.54.22-.53.33-1.19.33-1.99V1.36h4.84v5.17c0,.79.08,1.45.23,1.97.16.54.56,1.08,1.2,1.61,1.79,1.6,3.7,3.2,5.68,4.74,1.94,1.51,3.87,2.96,5.74,4.31l-2.8,3.58Z"/>
      <path d="m480.61,35.05c-.57,0-1.01-.15-1.31-.45-.3-.3-.45-.74-.45-1.31v-8.71c0-.56.15-1,.45-1.31.3-.3.74-.45,1.31-.45h23.63c.54,0,.97.15,1.29.46.31.3.47.74.47,1.3v8.71c0,.56-.16,1-.47,1.3-.32.3-.75.46-1.29.46h-23.63Zm2.96-8.06v3.85l.17.17h17.45l.17-.17v-3.85l-.17-.17h-17.45l-.17.17Zm17.82-6.43V.56h4.6v20.01h-4.6Zm-7.26-.24v-7.9l-.17-.17h-3.57v-3.92h3.57l.17-.17V.84l4.52-.04v19.52h-4.52Zm-14.13-.4c-.7,0-1.25-.08-1.64-.23-.39-.15-.81-.45-1.25-.88l-.92-.96c-.41-.43-.68-.84-.8-1.2-.13-.37-.19-.94-.19-1.69V2.4c0-.92.41-1.35,1.28-1.35h12.75v3.92h-9.14l-.17.17v3.33l.17.17h8.06v3.72h-8.06l-.17.17v1.97c0,.33.08.61.23.82l.47.39c.2.21.43.32.67.32h8.62v3.92h-9.9Z"/>
    </g>
  </g>
</svg>